<?xml version="1.0" encoding="UTF-8" standalone="no"?>
<!-- Created with Inkscape (http://www.inkscape.org/) -->

<svg
   width="8.5cm"
   height="8.5cm"
   viewBox="0 0 85 85.000001"
   version="1.1"
   id="svg1"
   inkscape:version="1.4 (e7c3feb100, 2024-10-09)"
   sodipodi:docname="Buttons2.svg"
   inkscape:export-filename="x10.png"
   inkscape:export-xdpi="96"
   inkscape:export-ydpi="96"
   xmlns:inkscape="http://www.inkscape.org/namespaces/inkscape"
   xmlns:sodipodi="http://sodipodi.sourceforge.net/DTD/sodipodi-0.dtd"
   xmlns:xlink="http://www.w3.org/1999/xlink"
   xmlns="http://www.w3.org/2000/svg"
   xmlns:svg="http://www.w3.org/2000/svg">
  <sodipodi:namedview
     id="namedview1"
     pagecolor="#ffffff"
     bordercolor="#000000"
     borderopacity="0.25"
     inkscape:showpageshadow="2"
     inkscape:pageopacity="0.0"
     inkscape:pagecheckerboard="0"
     inkscape:deskcolor="#d1d1d1"
     inkscape:document-units="mm"
     showgrid="true"
     inkscape:zoom="2.8284271"
     inkscape:cx="147.25499"
     inkscape:cy="172.53405"
     inkscape:window-width="1920"
     inkscape:window-height="1000"
     inkscape:window-x="0"
     inkscape:window-y="0"
     inkscape:window-maximized="1"
     inkscape:current-layer="layer1">
    <inkscape:grid
       id="grid1"
       units="mm"
       originx="0"
       originy="0"
       spacingx="0.99999995"
       spacingy="0.99999997"
       empcolor="#0099e5"
       empopacity="0.30196078"
       color="#0099e5"
       opacity="0.14901961"
       empspacing="5"
       enabled="true"
       visible="true" />
  </sodipodi:namedview>
  <defs
     id="defs1">
    <linearGradient
       id="linearGradient1"
       inkscape:collect="always">
      <stop
         style="stop-color:#e9f39e;stop-opacity:1;"
         offset="0"
         id="stop1" />
      <stop
         style="stop-color:#b7e6ff;stop-opacity:1;"
         offset="1"
         id="stop2" />
    </linearGradient>
    <linearGradient
       inkscape:collect="always"
       xlink:href="#linearGradient1"
       id="linearGradient2"
       x1="0"
       y1="42.5"
       x2="85"
       y2="42.5"
       gradientUnits="userSpaceOnUse" />
    <rect
       x="170.07874"
       y="170.07874"
       width="94.48819"
       height="94.48819"
       id="rect6" />
    <rect
       x="170.07874"
       y="170.07874"
       width="94.48819"
       height="94.48819"
       id="rect6-6" />
  </defs>
  <g
     inkscape:label="Слой 1"
     inkscape:groupmode="layer"
     id="layer1"
     inkscape:highlight-color="#ffffff">
    <rect
       style="display:inline;fill:url(#linearGradient2);stroke-width:0.304001"
       id="rect1"
       width="85"
       height="85"
       x="0"
       y="0"
       inkscape:label="Background"
       sodipodi:insensitive="true"
       inkscape:highlight-color="#3bffee" />
    <path
       id="path1"
       style="fill:#000000;fill-opacity:1;stroke-width:0.264581"
       d="m 12.44808,72.551803 a 42.499748,42.499748 0 0 0 60.104077,2.68e-4 42.499748,42.499748 0 0 0 -9.6e-5,-60.103711 z"
       inkscape:label="Black"
       sodipodi:insensitive="true"
       inkscape:highlight-color="#000000" />
    <path
       id="path4"
       style="display:inline;fill:#ffffff;fill-opacity:1;stroke-width:0.264583"
       d="M 12.447723,72.55178 72.552052,12.447988 a 42.499994,42.499994 0 0 0 -60.103694,-2.67e-4 42.499994,42.499994 0 0 0 -6.35e-4,60.104059 z"
       inkscape:label="White"
       inkscape:highlight-color="#ffffff"
       sodipodi:insensitive="true" />
    <path
       id="path6"
       style="display:inline;fill:#6be4df;fill-opacity:1;stroke-width:0.304001"
       d="m 69.999901,70.000021 -9.3e-4,-49.999532 -49.998597,50.000464 z m -2.999868,-2.999761 -38.999687,7.27e-4 38.99896,-39.00093 z"
       inkscape:label="Triangle"
       inkscape:highlight-color="#ffff00"
       sodipodi:insensitive="true" />
    <path
       id="path6-6"
       style="display:inline;opacity:0.5;fill:#6be4df;fill-opacity:1;stroke-width:0.304001"
       d="m 63.999999,48.999999 v 14.999999 h -15 v -5 l 10,-9.999999 z"
       inkscape:label="Triangle"
       inkscape:highlight-color="#ffff00"
       sodipodi:nodetypes="cccccc"
       sodipodi:insensitive="true" />
    <path
       id="text10"
       style="font-style:normal;font-variant:normal;font-weight:bold;font-stretch:normal;font-size:50.873px;font-family:Arial;-inkscape-font-specification:'Arial Bold';text-align:start;writing-mode:lr-tb;direction:ltr;text-anchor:start;display:inline;fill:#ffbb00;fill-opacity:1;stroke-width:0.782838"
       inkscape:label="Y"
       d="M 10.944035,19.999813 23.413558,40.64248 v 14.357264 h 1.586466 l 5.716964,-5.716964 v -8.6403 L 43.186511,19.999813 h -7.6755 l -8.495606,14.804781 -8.39587,-14.804781 z"
       inkscape:highlight-color="#ffff00"
       sodipodi:insensitive="true" />
    <path
       id="path3"
       style="display:inline;fill:#f69dc8;fill-opacity:1;stroke-width:0.477002;stroke-dasharray:none"
       d="m 69.999837,70.00009 2.01e-4,-44.999837 -4.999695,-2.2e-5 -2.999831,2.999803 4.999695,2.3e-5 -1.74e-4,39.000203 -39.000203,-1.75e-4 2.2e-5,-5.000211 -2.99983,2.999803 L 25,69.999889 Z"
       sodipodi:nodetypes="ccccccccccc"
       inkscape:label="Rectangle"
       inkscape:highlight-color="#0000ff"
       sodipodi:insensitive="true" />
    <path
       id="path3-5"
       style="display:inline;opacity:0.5;fill:#f69dc8;fill-opacity:1;stroke-width:0.477002;stroke-dasharray:none"
       d="m 54.999901,54.99983 9.8e-5,-14.999831 -4.999695,-2.2e-5 -10.000283,9.99981 -2.2e-5,5.000212 z"
       sodipodi:nodetypes="cccccc"
       inkscape:label="Rectangle"
       inkscape:highlight-color="#0000ff"
       sodipodi:insensitive="true" />
    <path
       id="text9"
       style="font-style:normal;font-variant:normal;font-weight:bold;font-stretch:normal;font-size:50.873px;font-family:Arial;-inkscape-font-specification:'Arial Bold';text-align:start;writing-mode:lr-tb;direction:ltr;text-anchor:start;display:inline;fill:#00a1f1;fill-opacity:1;stroke-width:0.782838"
       inkscape:label="X"
       d="M 11.565186,19.999813 22.668384,36.593115 10.546643,54.999744 h 7.749915 l 8.793778,-13.935067 4.582666,7.262089 4.707723,-4.707723 -4.446757,-7.025928 10.631909,-16.593302 H 34.865055 L 27.090336,32.370634 19.3151,19.999813 Z"
       inkscape:highlight-color="#0000ff"
       sodipodi:insensitive="true" />
    <path
       id="path2"
       style="display:inline;fill:#f75f66;fill-opacity:1;stroke:none;stroke-width:0.608001"
       d="m 62.677311,27.322363 -2.121317,2.121318 c 4.1259,4.125687 6.443894,9.721403 6.444051,15.556156 1.15e-4,12.150427 -9.849781,22.000323 -22.000208,22.000208 -5.834753,-1.57e-4 -11.430469,-2.318151 -15.556156,-6.444051 l -2.076876,2.076875 c 4.670157,4.693873 11.011684,7.343331 17.633032,7.366993 13.807144,2.5e-5 25.000052,-11.192883 25.000025,-25.000025 -1.07e-4,-6.630377 -2.634106,-12.98915 -7.322551,-17.677474 z"
       sodipodi:nodetypes="ccccccccc"
       inkscape:label="Circle"
       inkscape:highlight-color="#ff0000"
       sodipodi:insensitive="true" />
    <path
       id="text1"
       style="font-style:normal;font-variant:normal;font-weight:bold;font-stretch:normal;font-size:52.2767px;font-family:'Noto Sans';-inkscape-font-specification:'Noto Sans Bold';text-align:start;writing-mode:lr-tb;direction:ltr;text-anchor:start;display:inline;fill:#ff0000;fill-opacity:1;stroke-width:0.804439"
       d="M 11.551601,21.328696 V 58.654191 H 23.442883 L 37.832111,42.289258 c -0.522421,-0.782831 -1.162271,-1.409329 -1.919372,-1.879254 -1.010682,-0.62732 -2.143145,-1.063252 -3.397786,-1.30721 v -0.261222 c 1.84711,-0.31366 3.258318,-1.202477 4.23415,-2.666225 1.010683,-1.463747 1.516211,-3.258334 1.516211,-5.384253 0,-3.519964 -1.27232,-5.976925 -3.816452,-7.370971 -2.544133,-1.394045 -6.307677,-2.091427 -11.291389,-2.091427 z m 7.894086,6.482597 h 4.181817 c 2.265323,0 3.920796,0.313408 4.96633,0.940729 1.045534,0.62732 1.568545,1.655614 1.568545,3.08451 0,1.394045 -0.453082,2.456794 -1.359212,3.188668 -0.871278,0.731874 -2.456822,1.097793 -4.756997,1.097793 h -4.600483 z m 0,14.584878 h 4.913998 c 2.509281,0 4.234199,0.435932 5.175179,1.307211 0.975832,0.836427 1.463878,1.951686 1.463878,3.345732 0,1.53345 -0.470564,2.770682 -1.411545,3.711662 -0.94098,0.90613 -2.596453,1.359015 -4.96633,1.359015 h -5.17518 z"
       transform="scale(1.0664448,0.93769504)"
       inkscape:label="B"
       inkscape:highlight-color="#ff0000"
       sodipodi:insensitive="true" />
    <path
       id="path8-7"
       style="display:inline;opacity:0.5;fill:#767ee1;fill-opacity:1;stroke:none;stroke-width:0.303264"
       d="m 52.529166,63.000242 -5,5 -5.000122,-5.000122 -1.999878,1.999878 5.000122,5.000122 -5.000122,5.000122 1.999878,1.999878 5.000122,-5.000122 5,5 1.999878,-1.999878 -5,-5 5,-5 z"
       inkscape:label="Cross"
       inkscape:highlight-color="#00ff00"
       sodipodi:nodetypes="ccccccccccccc"
       sodipodi:insensitive="true" />
    <path
       id="path8-7-3"
       style="display:inline;opacity:0.5;fill:#767ee1;fill-opacity:1;stroke:none;stroke-width:0.303264"
       d="m 74.999999,40.52941 -5,5 -5.000122,-5.000122 -1.999878,1.999878 5.000122,5.000122 -5.000122,5.000122 1.999878,1.999878 5.000122,-5.000122 5,5 1.999878,-1.999878 -5,-5 5,-5 z"
       inkscape:label="Cross"
       inkscape:highlight-color="#00ff00"
       sodipodi:nodetypes="ccccccccccccc"
       sodipodi:insensitive="true" />
    <path
       id="path8"
       style="display:inline;fill:#767ee1;fill-opacity:1;stroke:none;stroke-width:0.303264"
       d="m 67.999984,25.000024 -20.500041,20.500041 -1.500167,-1.500167 -1.999878,1.999878 1.500167,1.500167 -20.500041,20.500041 1.999878,1.999878 L 47.499943,49.499821 67.999984,69.999862 69.999862,67.999984 49.499821,47.499943 69.999862,26.999902 Z"
       inkscape:label="Cross"
       inkscape:highlight-color="#00ff00"
       sodipodi:insensitive="true" />
    <path
       id="text8"
       style="font-weight:bold;font-size:50.873px;font-family:Arial;-inkscape-font-specification:'Arial Bold';text-align:start;writing-mode:lr-tb;direction:ltr;text-anchor:start;display:inline;opacity:1;fill:#7cbb00;fill-opacity:1;stroke-width:0.782838"
       d="M 22.768119,19.999813 9.9999064,54.999744 h 7.3282346 l 3.10472,-8.94209 h 13.339238 l 0.04393,0.126607 5.215702,-5.216219 -7.619173,-20.968229 z m 4.322217,5.390368 0.521415,1.714108 1.068152,3.378088 3.453019,10.060368 H 22.072555 c 2.616515,-7.617702 4.040764,-11.807488 4.272607,-12.569259 0.231843,-0.76177 0.430227,-1.4404 0.595829,-2.036568 z"
       inkscape:label="A"
       inkscape:highlight-color="#00ff00"
       sodipodi:insensitive="true" />
  </g>
</svg>
